HIERARCHY
ROOT Hips
{
	OFFSET 0.00000 0.00000 0.00000
	CHANNELS 6 Xposition Yposition Zposition Yrotation Zrotation Xrotation 
	JOINT Lumbar
	{
		OFFSET 0 0 0
		CHANNELS 3 Zrotation Xrotation Yrotation
		JOINT Neck
		{
			OFFSET 0.00 0.2701 0.00
			CHANNELS 3 Zrotation Xrotation Yrotation
			End Site
			{
				OFFSET 0.00 0.1379 0.00
			}
		}
		JOINT RightShoulder
		{
			OFFSET 0.0119 0.2289 0.1181
			CHANNELS 3 Zrotation Xrotation Yrotation
			JOINT RightElbow
			{
				OFFSET 0.00 -0.1475 0.00
				CHANNELS 2 Zrotation Yrotation
				JOINT RightWrist
				{
					OFFSET 0.00 -0.1605 0.00
					CHANNELS 2 Zrotation Xrotation
					End Site
					{
						OFFSET 0.0040 -0.1068 0.0006
					}
				}
			}
		}
		JOINT LeftShoulder
		{
			OFFSET 0.0119 0.2289 -0.1181
			CHANNELS 3 Zrotation Xrotation Yrotation
			JOINT LeftElbow
			{
				OFFSET 0.00 -0.1475 0.00
				CHANNELS 2 Zrotation Yrotation
				JOINT LeftWrist
				{
					OFFSET 0.00 -0.1605 0.00
					CHANNELS 2 Zrotation Xrotation
					End Site
					{
						OFFSET 0.0040 -0.1068 -0.0006
					}
				}
			}
		}
	}
	JOINT RightHip
	{
		OFFSET 0.0316 -0.0424 0.0458
		CHANNELS 3 Zrotation Xrotation Yrotation
		JOINT RightKnee
		{
			OFFSET 0.00 -0.2438 0.00
			CHANNELS 1 Zrotation
			JOINT RightAnkle
			{
				OFFSET 0.00 -0.2449 0.00
				CHANNELS 3 Zrotation Xrotation Yrotation
				End Site
				{
					OFFSET 0.1237 -0.0542 0.0051
				}
			}
		}
	}
	JOINT LeftHip
	{
		OFFSET 0.0316 -0.0424 -0.0458
		CHANNELS 3 Zrotation Xrotation Yrotation
		JOINT LeftKnee
		{
			OFFSET 0.00 -0.2438 0.00
			CHANNELS 1 Zrotation
			JOINT LeftAnkle
			{
				OFFSET 0.00 -0.2449 0.00
				CHANNELS 3 Zrotation Xrotation Yrotation
				End Site
				{
					OFFSET 0.1237 -0.0542 -0.0051
				}
			}
		}
	}
}
MOTION
Frames: 31
Frame Time: 0.02
0.98653 -0.16835 0.51471 534.27317 -2.35469 0.10022 1.29427 4.40036 -10.72834 0.88068 5.03748 -2.11994 27.7708 11.50309 36.14668 124.94008 92.96463 -19.68265 -7.43559 20.20969 -2.11091 -34.01151 50.5299 -89.49264 -7.58953 8.39437 68.58821 -0.0221 -14.54113 -50.8009 -14.27224 0.20535 -2.45439 88.36732 -7.43034 35.95187 -72.30012 -19.38581 1.84548 3.75483
0.98736 -0.16887 0.51452 534.29362 -1.62771 0.14248 0.80322 4.27767 -10.69647 0.80491 5.08447 -2.11994 27.24029 11.39884 37.00276 125.6334 92.9715 -17.8673 -7.38352 20.58997 -2.96427 -33.64083 49.14127 -88.51749 -7.25366 7.7402 67.85086 -0.07548 -14.62554 -50.67424 -14.33511 0.20689 -2.45616 87.6114 -7.49518 35.92485 -71.95835 -19.36135 1.84542 3.75345
0.98825 -0.16944 0.5143 534.31767 -0.87208 0.16791 0.271 4.13942 -10.56821 0.66211 5.34539 -2.11994 26.68487 11.17854 37.76946 126.30454 92.85963 -15.4656 -7.19558 20.79021 -3.72068 -33.23327 48.39744 -86.79252 -6.69841 6.86441 67.06856 -0.1438 -14.78398 -50.52089 -14.39972 0.21088 -2.45684 86.816 -7.57978 35.90558 -71.57883 -19.33383 1.84459 3.7515
0.98911 -0.16998 0.51409 534.34074 -0.13346 0.19982 -0.23978 4.00524 -10.47625 0.5517 5.53447 -2.11994 26.15146 11.00368 38.55814 126.98368 92.72628 -13.34863 -7.07372 21.07551 -4.51155 -32.85358 47.36447 -85.46786 -6.2551 6.10578 66.31364 -0.20478 -14.90563 -50.38206 -14.46444 0.21372 -2.45806 86.04833 -7.65311 35.88383 -71.22079 -19.30837 1.84415 3.74987
0.98996 -0.17053 0.51386 534.36036 0.62317 0.23741 -0.76365 3.88278 -10.41511 0.43185 5.61694 -2.11994 25.57521 10.85525 39.43182 127.67126 92.88621 -11.13718 -6.93316 21.34269 -5.34616 -32.41854 46.30809 -83.90684 -5.75954 5.27295 65.5289 -0.26801 -15.04014 -50.23315 -14.52585 0.21666 -2.45913 85.23905 -7.73583 35.85794 -70.84371 -19.2802 1.84352 3.74798
0.99084 -0.17108 0.51368 534.38875 1.34857 0.25845 -1.26902 3.73297 -10.26766 0.31642 5.97171 -2.11994 25.08208 10.62653 40.10444 128.33553 92.42445 -8.99255 -6.79931 21.60544 -6.06455 -32.0942 45.45732 -82.65298 -5.3208 4.54401 64.79568 -0.3298 -15.16493 -50.09882 -14.59419 0.21998 -2.46025 84.50675 -7.80391 35.84243 -70.49798 -19.25681 1.8431 3.74647
0.99179 -0.17165 0.51366 534.43449 1.98131 0.2432 -1.71813 3.50677 -9.89996 0.22762 7.03025 -2.11994 24.81663 10.19671 40.24748 128.9478 90.17996 -7.14416 -6.71931 21.91382 -6.49615 -32.07263 45.00402 -82.44685 -5.09443 4.15446 64.21714 -0.38788 -15.25351 -50.01194 -14.68359 0.22394 -2.4617 84.00214 -7.82533 35.85349 -70.24375 -19.24861 1.84368 3.74637
0.99274 -0.17222 0.51369 534.48994 2.58112 0.21084 -2.14599 3.25463 -9.44997 0.14622 8.35444 -2.11994 24.63693 9.69229 40.18946 129.53593 87.33406 -5.39147 -6.65078 22.22221 -6.81185 -32.16654 44.73854 -82.57082 -4.9327 3.87798 63.69197 -0.4433 -15.32848 -49.94052 -14.77939 0.22815 -2.46324 83.57565 -7.83159 35.87471 -70.02331 -19.24513 1.84448 3.74664
0.99367 -0.17278 0.51368 534.54507 3.19575 0.18277 -2.58034 3.01737 -9.04111 0.06279 9.55448 -2.11994 24.42253 9.22733 40.22057 130.13104 84.82817 -3.61751 -6.57525 22.5223 -7.17345 -32.21705 44.3961 -82.53113 -4.74017 3.55161 63.14137 -0.49744 -15.4039 -49.86164 -14.87074 0.23212 -2.46475 83.10969 -7.84579 35.89144 -69.79013 -19.23864 1.84502 3.7466
0.99471 -0.17338 0.51373 534.58359 3.81297 0.1688 -3.03005 2.7661 -8.61246 -0.02902 10.77727 -2.11994 24.18857 8.7338 40.25929 130.74335 82.03611 -1.72803 -6.50105 22.85092 -7.5603 -32.22976 44.04059 -82.52298 -4.54551 3.2115 62.59358 -0.56267 -15.50538 -49.78374 -14.96882 0.23675 -2.46618 82.65829 -7.8564 35.90804 -69.54417 -19.23559 1.84617 3.74709
0.99552 -0.1739 0.51367 534.65826 4.41542 0.12167 -3.44154 2.53858 -8.20755 -0.10028 12.01193 -2.11994 24.01691 8.28482 40.23412 131.31299 79.6991 -0.11081 -6.43041 23.1226 -7.86826 -32.34669 43.74853 -82.53741 -4.37407 2.92931 62.05394 -0.6039 -15.54931 -49.7077 -15.05417 0.24 -2.46782 82.19663 -7.87043 35.92706 -69.33385 -19.2267 1.84617 3.74661
0.99571 -0.17417 0.51328 534.83622 4.99475 -0.0132 -3.75767 2.37875 -7.88204 -0.12017 13.22154 -2.11994 23.98895 7.96737 40.09433 131.78271 78.76553 0.78435 -6.35094 23.23708 -7.98701 -32.74452 43.58347 -82.53545 -4.24727 2.78489 61.51802 -0.58004 -15.42923 -49.63427 -15.10472 0.23971 -2.46996 81.67974 -7.89931 35.95157 -69.20953 -19.19926 1.84244 3.74299
0.99567 -0.17436 0.51278 535.04904 5.55815 -0.18066 -4.03481 2.24467 -7.5851 -0.11863 14.4309 -2.11994 24.02232 7.69987 39.89548 132.20807 78.3114 1.40431 -6.2778 23.29513 -8.03063 -33.23946 43.47317 -82.54826 -4.14343 2.69511 60.9901 -0.53199 -15.2529 -49.56213 -15.14192 0.23796 -2.47234 81.15177 -7.93178 35.97795 -69.12082 -19.16608 1.83764 3.73846
0.99575 -0.17459 0.51236 535.24213 6.12272 -0.33297 -4.3265 2.10153 -7.27946 -0.12424 15.63538 -2.11994 24.03237 7.41634 39.71558 132.64614 77.63854 2.1435 -6.21343 23.37995 -8.10914 -33.67617 43.33582 -82.55663 -4.03258 2.57764 60.4621 -0.49449 -15.10752 -49.48862 -15.18392 0.23666 -2.47468 80.63384 -7.96138 36.00245 -69.01875 -19.13637 1.83369 3.73459
0.99579 -0.17482 0.51183 535.45225 6.71286 -0.48753 -4.63139 1.94592 -6.95205 -0.1406 16.87286 -2.11994 24.02569 7.10148 39.56107 133.11533 76.94805 2.90568 -6.10218 23.46004 -8.18103 -34.17648 43.21379 -82.56613 -3.90928 2.47543 59.91957 -0.45855 -14.93902 -49.4187 -15.23131 0.23627 -2.47673 80.09637 -7.99559 36.03129 -68.9061 -19.10306 1.82824 3.72967
0.99584 -0.17502 0.5115 535.63467 7.24505 -0.64466 -4.8991 1.82322 -6.6788 -0.12952 18.0349 -2.11994 24.06794 6.86532 39.34333 133.50883 76.41617 3.55418 -6.08744 23.53645 -8.24958 -34.56577 43.07131 -82.57301 -3.81668 2.35373 59.41022 -0.41394 -14.80542 -49.34172 -15.26445 0.23366 -2.47944 79.59737 -8.02139 36.05187 -68.82327 -19.07598 1.82565 3.72671
0.99594 -0.17514 0.51173 535.7355 7.63284 -0.80307 -5.07974 1.78115 -6.54036 -0.04878 19.01457 -2.11994 24.22397 6.82969 38.95727 133.70978 76.20633 3.9693 -6.35996 23.61804 -8.33489 -34.62524 42.84854 -82.56476 -3.80234 2.15809 58.97546 -0.34883 -14.78267 -49.24199 -15.25955 0.22493 -2.48406 79.19434 -8.02195 36.04527 -68.81601 -19.06608 1.83137 3.72936
0.99606 -0.17522 0.51218 535.80668 7.96102 -0.96255 -5.2234 1.7721 -6.4572 0.05867 19.91246 -2.11994 24.42753 6.87265 38.5121 133.83516 76.14208 4.27749 -6.72556 23.69758 -8.4186 -34.56909 42.60413 -82.5526 -3.81799 1.94173 58.5761 -0.27629 -14.79706 -49.13553 -15.24107 0.21406 -2.48931 78.83216 -8.01428 36.03101 -68.8369 -19.06286 1.83997 3.734
0.99617 -0.17532 0.51255 535.88899 8.30874 -1.11988 -5.37995 1.75074 -6.3544 0.15478 20.82903 -2.11994 24.61346 6.88321 38.10043 133.9916 76.01367 4.62638 -7.03337 23.7771 -8.49869 -34.56479 42.37557 -82.54342 -3.82022 1.73864 58.1705 -0.20885 -14.79386 -49.03406 -15.23011 0.20437 -2.4942 78.45978 -8.01112 36.02272 -68.8436 -19.05756 1.84718 3.73774
0.99623 -0.17541 0.51285 535.9819 8.68701 -1.28493 -5.55112 1.71915 -6.22989 0.24942 21.82245 -2.11994 24.78623 6.88204 37.65877 134.16034 75.89429 4.99887 -7.40519 23.85873 -8.5945 -34.56636 42.12405 -82.52979 -3.82242 1.52095 57.72474 -0.1334 -14.79111 -48.92469 -15.21315 0.19375 -2.49944 78.05295 -8.00451 36.00385 -68.85789 -19.04821 1.85474 3.74147
0.99642 -0.17551 0.51334 536.04591 8.98862 -1.43428 -5.68425 1.71601 -6.16271 0.35175 22.63806 -2.11994 24.99511 6.92258 37.26602 134.28607 75.78308 5.30049 -7.66774 23.93615 -8.65811 -34.52765 41.91398 -82.52437 -3.8315 1.32842 57.36954 -0.07306 -14.79772 -48.82987 -15.20545 0.18459 -2.50408 77.72618 -8.00345 36.00538 -68.86207 -19.04873 1.86223 3.74567
0.997 -0.17564 0.51439 536.03132 9.08505 -1.53511 -5.71552 1.78666 -6.24596 0.48085 22.96676 -2.11994 25.30681 7.06553 37.02621 134.31203 75.66976 5.43296 -7.58803 24.00326 -8.63431 -34.39919 41.82746 -82.54132 -3.85189 1.20646 57.26803 -0.05745 -14.81495 -48.77949 -15.2284 0.17982 -2.50701 77.62412 -8.01673 36.06334 -68.83544 -19.07675 1.86906 3.75094
0.99771 -0.17578 0.51562 535.98954 9.10779 -1.62079 -5.71096 1.88407 -6.38384 0.6144 23.12186 -2.11994 25.65012 7.24626 36.83742 134.29741 75.5554 5.49899 -7.39818 24.06628 -8.57835 -34.2348 41.78251 -82.5668 -3.8781 1.11099 57.25434 -0.05725 -14.84173 -48.74355 -15.26089 0.17664 -2.5093 77.59898 -8.0364 36.14242 -68.79673 -19.11415 1.87567 3.75656
0.99833 -0.17591 0.51674 535.96408 9.16992 -1.71656 -5.727 1.9669 -6.4928 0.73784 23.36741 -2.11994 25.96901 7.40524 36.62325 134.30128 75.4318 5.59674 -7.27071 24.13095 -8.53678 -34.09098 41.71561 -82.58913 -3.90181 1.00567 57.19204 -0.04931 -14.86843 -48.69921 -15.28796 0.17284 -2.51182 77.52945 -8.05511 36.21298 -68.76071 -19.146 1.8822 3.76186
0.99904 -0.17605 0.51799 535.92119 9.20587 -1.79916 -5.72397 2.06102 -6.62076 0.89629 23.5631 -2.11994 26.33218 7.58645 36.41589 134.30237 75.35396 5.68463 -7.0955 24.19657 -8.49606 -33.92585 41.66043 -82.60833 -3.92608 0.89038 57.16669 -0.04406 -14.87842 -48.66218 -15.31916 0.16854 -2.51465 77.50015 -8.06538 36.27868 -68.73747 -19.18342 1.88958 3.76792
0.99962 -0.17617 0.51902 535.90814 9.27859 -1.90521 -5.75202 2.13766 -6.72168 0.98265 23.82025 -2.11994 26.60986 7.72915 36.2077 134.3005 75.1794 5.77808 -6.99106 24.25908 -8.44593 -33.79737 41.5916 -82.63605 -3.95004 0.80247 57.08603 -0.03715 -14.92502 -48.61368 -15.34419 0.1657 -2.51665 77.40608 -8.09477 36.35969 -68.68443 -19.21149 1.89511 3.77246
0.99978 -0.17623 0.51939 535.98765 9.48008 -2.08271 -5.88018 2.15849 -6.73202 0.86738 24.30871 -2.11994 26.64467 7.75692 35.98101 134.30164 74.73085 5.90877 -7.11934 24.31583 -8.37805 -33.7852 41.46969 -82.68577 -3.97288 0.78329 56.82039 -0.02041 -15.07003 -48.5281 -15.34992 0.16646 -2.51658 77.10322 -8.17605 36.47698 -68.5514 -19.2104 1.89567 3.77269
0.9998 -0.17627 0.51955 536.09761 9.71967 -2.28375 -6.04001 2.16088 -6.71348 0.67949 24.86155 -2.11994 26.59204 7.74404 35.75258 134.30124 74.18636 6.0463 -7.32001 24.3693 -8.3018 -33.81052 41.3337 -82.74362 -3.99492 0.79094 56.498 -0.00175 -15.25138 -48.43093 -15.3492 0.16867 -2.51569 76.73447 -8.27621 36.60904 -68.38889 -19.19973 1.89437 3.77139
0.99989 -0.17632 0.51981 536.19151 9.93613 -2.47208 -6.18188 2.17216 -6.70949 0.52574 25.37318 -2.11994 26.57848 7.74899 35.5279 134.30123 73.68867 6.17825 -7.48059 24.42309 -8.2291 -33.81514 41.20766 -82.79745 -4.01633 0.78669 56.20831 0.01497 -15.41622 -48.34027 -15.35141 0.1703 -2.51511 76.40288 -8.36745 36.73509 -68.24005 -19.19411 1.89387 3.7708
0.99997 -0.17636 0.52005 536.2939 10.17466 -2.66845 -6.33748 2.18205 -6.70128 0.36758 25.93045 -2.11994 26.56846 7.75829 35.29312 134.3015 73.1742 6.3205 -7.66872 24.48162 -8.15617 -33.83399 41.06801 -82.85317 -4.04183 0.78215 55.89207 0.0355 -15.58166 -48.2446 -15.35383 0.17167 -2.51475 76.04327 -8.46064 36.85939 -68.08926 -19.1859 1.89353 3.77015
1.00004 -0.17641 0.52027 536.38612 10.37707 -2.85379 -6.47255 2.19035 -6.69448 0.20104 26.40862 -2.11994 26.5304 7.74806 35.0775 134.30083 72.6761 6.44099 -7.81685 24.52965 -8.08235 -33.83246 40.95289 -82.90652 -4.05893 0.78422 55.61709 0.04897 -15.75398 -48.15675 -15.35432 0.17388 -2.51376 75.72569 -8.5538 36.98993 -67.93619 -19.18065 1.89245 3.76927
